<?xml version="1.0" encoding="utf-8"?>
<!-- Generator: Adobe Illustrator 27.5.0, SVG Export Plug-In . SVG Version: 6.00 Build 0)  -->
<svg version="1.1" xmlns="http://www.w3.org/2000/svg" xmlns:xlink="http://www.w3.org/1999/xlink" x="0px" y="0px"
	 viewBox="0 0 500 500" style="enable-background:new 0 0 500 500;" xml:space="preserve">
<g id="BACKGROUND">
	<g>
		<rect style="fill:#F1E8D9;" width="500" height="500"/>
		<rect y="296.678" style="fill:#BA5D33;" width="500" height="203.322"/>
		<g style="opacity:0.4;">
			<defs>
				<rect id="SVGID_1_" y="296.678" style="opacity:0.4;" width="500" height="203.322"/>
			</defs>
			<clipPath id="SVGID_00000018951869098432924920000008316880245219908498_">
				<use xlink:href="#SVGID_1_"  style="overflow:visible;"/>
			</clipPath>
			<g style="clip-path:url(#SVGID_00000018951869098432924920000008316880245219908498_);">
				<line style="fill:none;stroke:#F3E5D9;stroke-miterlimit:10;" x1="-5" y1="542.364" x2="14.874" y2="261.671"/>
				<line style="fill:none;stroke:#F3E5D9;stroke-miterlimit:10;" x1="35.604" y1="267.756" x2="14.874" y2="538.909"/>
				<line style="fill:none;stroke:#F3E5D9;stroke-miterlimit:10;" x1="52.015" y1="532.863" x2="60.653" y2="245.859"/>
				<line style="fill:none;stroke:#F3E5D9;stroke-miterlimit:10;" x1="91.524" y1="263.786" x2="78.965" y2="537.182"/>
				<line style="fill:none;stroke:#F3E5D9;stroke-miterlimit:10;" x1="109.714" y1="521.634" x2="114.52" y2="235.254"/>
				<line style="fill:none;stroke:#F3E5D9;stroke-miterlimit:10;" x1="127.64" y1="544.364" x2="139.597" y2="263.222"/>
				<line style="fill:none;stroke:#F3E5D9;stroke-miterlimit:10;" x1="160.49" y1="268.721" x2="147.408" y2="540.351"/>
				<line style="fill:none;stroke:#F3E5D9;stroke-miterlimit:10;" x1="184.365" y1="533.26" x2="184.912" y2="246.127"/>
				<line style="fill:none;stroke:#F3E5D9;stroke-miterlimit:10;" x1="216.276" y1="263.177" x2="211.426" y2="536.818"/>
				<line style="fill:none;stroke:#F3E5D9;stroke-miterlimit:10;" x1="241.725" y1="520.41" x2="238.459" y2="234.008"/>
				<line style="fill:none;stroke:#F3E5D9;stroke-miterlimit:10;" x1="506.896" y1="240.436" x2="487.022" y2="521.13"/>
				<line style="fill:none;stroke:#F3E5D9;stroke-miterlimit:10;" x1="466.292" y1="515.045" x2="487.022" y2="243.891"/>
				<line style="fill:none;stroke:#F3E5D9;stroke-miterlimit:10;" x1="454.309" y1="245.509" x2="445.672" y2="532.513"/>
				<line style="fill:none;stroke:#F3E5D9;stroke-miterlimit:10;" x1="414.801" y1="514.587" x2="427.359" y2="241.19"/>
				<line style="fill:none;stroke:#F3E5D9;stroke-miterlimit:10;" x1="396.61" y1="256.738" x2="391.804" y2="543.119"/>
				<line style="fill:none;stroke:#F3E5D9;stroke-miterlimit:10;" x1="378.685" y1="234.008" x2="366.728" y2="515.15"/>
				<line style="fill:none;stroke:#F3E5D9;stroke-miterlimit:10;" x1="345.834" y1="509.651" x2="358.916" y2="238.021"/>
				<line style="fill:none;stroke:#F3E5D9;stroke-miterlimit:10;" x1="321.96" y1="245.112" x2="321.412" y2="532.245"/>
				<line style="fill:none;stroke:#F3E5D9;stroke-miterlimit:10;" x1="290.048" y1="515.196" x2="294.899" y2="241.554"/>
				<line style="fill:none;stroke:#F3E5D9;stroke-miterlimit:10;" x1="264.6" y1="257.962" x2="267.865" y2="544.364"/>
				<line style="fill:none;stroke:#F3E5D9;stroke-miterlimit:10;" x1="-23.373" y1="312.461" x2="527.823" y2="309.021"/>
				<line style="fill:none;stroke:#F3E5D9;stroke-miterlimit:10;" x1="549.356" y1="331.774" x2="-30.224" y2="339.177"/>
				<line style="fill:none;stroke:#F3E5D9;stroke-miterlimit:10;" x1="-17.268" y1="365.279" x2="529.49" y2="357.486"/>
				<line style="fill:none;stroke:#F3E5D9;stroke-miterlimit:10;" x1="527.762" y1="383.588" x2="-23.311" y2="392.545"/>
				<line style="fill:none;stroke:#F3E5D9;stroke-miterlimit:10;" x1="-17.268" y1="421.439" x2="519.442" y2="419.711"/>
				<line style="fill:none;stroke:#F3E5D9;stroke-miterlimit:10;" x1="526.898" y1="441.305" x2="-23.311" y2="444.76"/>
				<line style="fill:none;stroke:#F3E5D9;stroke-miterlimit:10;" x1="-18.132" y1="463.763" x2="519.442" y2="469.809"/>
				<line style="fill:none;stroke:#F3E5D9;stroke-miterlimit:10;" x1="-22.603" y1="488.26" x2="515.002" y2="486.707"/>
			</g>
		</g>
	</g>
</g>
<g id="OBJECTS">
	<polygon style="fill:#A24418;" points="390.073,343.939 489.938,448.835 7.156,448.835 112.357,335.742 	"/>
	<g>
		<g>
			<polygon style="fill:#7AB6CC;" points="417.379,344.878 93.62,337.174 100.77,220.94 103.213,181.186 106.33,130.534 
				106.352,130.158 136.701,130.832 407.421,136.867 409.742,185.286 411.897,230.334 			"/>
			<polygon style="fill:#355463;" points="417.379,344.876 409.815,344.694 401.68,141.888 114.358,138.619 100.198,337.387 
				93.62,337.174 105.733,140.236 106.352,130.156 407.421,136.865 			"/>
			<path style="fill:#221610;" d="M169.229,127.633c3.678,39.646,60.964,38.532,62.444,0H169.229z"/>
			<path style="fill:#613C11;" d="M176.04,126.488c2.42,26.091,40.12,25.358,41.094,0H176.04z"/>
			<g style="opacity:0.2;">
				<defs>
					<polygon id="SVGID_00000083052526414545004100000008532817267364770226_" style="opacity:0.2;" points="417.379,344.878 
						93.62,337.174 100.77,220.94 103.213,181.186 106.33,130.534 106.352,130.158 136.701,130.832 407.421,136.867 
						409.742,185.286 411.897,230.334 					"/>
				</defs>
				<clipPath id="SVGID_00000075865224266428674520000000122012998967467398_">
					<use xlink:href="#SVGID_00000083052526414545004100000008532817267364770226_"  style="overflow:visible;"/>
				</clipPath>
				<g style="clip-path:url(#SVGID_00000075865224266428674520000000122012998967467398_);">
					<polygon style="fill:#FFFFFF;" points="89.808,347.559 183.423,386.345 451.521,95.272 380.63,82.955 					"/>
					<polygon style="fill:#FFFFFF;" points="200.956,393.908 222.991,393.908 484.903,124.859 448.228,101.22 					"/>
					<polygon style="fill:#FFFFFF;" points="36.03,359.905 58.029,361.151 334.744,107.351 299.465,81.675 					"/>
				</g>
			</g>
			<path style="fill:#FFFFFF;" d="M106.355,130.161l301.061,6.706l9.964,208.014L93.614,337.17L106.355,130.161 M98.052,121.132
				l-0.522,8.486L84.79,336.627l-0.564,9.164l9.178,0.219l323.765,7.711l9.496,0.226l-0.454-9.488l-9.964-208.014l-0.394-8.233
				l-8.24-0.184l-301.061-6.706L98.052,121.132L98.052,121.132z"/>
			<polygon style="fill:#FFFFFF;" points="84.226,345.791 15.277,417.91 484.723,423.191 426.666,353.947 			"/>
			<polygon style="fill:#F1E2CA;" points="198.766,390.401 192.166,411.339 305.924,413.854 297.466,392.816 			"/>
			<g>
				<polygon style="fill:#F1E2CA;" points="342.93,381.659 340.355,374.656 329.227,374.431 330.934,381.512 				"/>
				<polygon style="fill:#F1E2CA;" points="357.561,381.837 355.792,374.968 341.542,374.68 344.114,381.673 				"/>
				<polygon style="fill:#F1E2CA;" points="338.285,365.819 341.133,373.566 355.506,373.856 353.502,366.075 				"/>
				<polygon style="fill:#F1E2CA;" points="375.707,382.06 373.204,375.319 356.94,374.991 358.706,381.852 				"/>
				<polygon style="fill:#F1E2CA;" points="354.649,366.094 356.654,373.879 372.79,374.206 369.872,366.35 				"/>
				<polygon style="fill:#F1E2CA;" points="415.844,375.075 410.675,367.036 397.715,366.818 402.13,374.798 				"/>
				<polygon style="fill:#F1E2CA;" points="371.059,366.37 373.978,374.229 384.85,374.449 381.488,366.545 				"/>
				<polygon style="fill:#F1E2CA;" points="421.654,366.116 417.128,361.108 408.026,360.871 411.286,365.941 				"/>
				<polygon style="fill:#F1E2CA;" points="369.459,365.238 367.445,359.815 352.935,359.438 354.363,364.984 				"/>
				<polygon style="fill:#F1E2CA;" points="395.823,365.681 392.944,360.479 379.963,360.141 382.223,365.452 				"/>
				<polygon style="fill:#F1E2CA;" points="381.014,365.432 378.749,360.109 368.635,359.846 370.645,365.258 				"/>
				<polygon style="fill:#F1E2CA;" points="382.697,366.566 386.061,374.474 400.853,374.772 396.44,366.797 				"/>
				<polygon style="fill:#F1E2CA;" points="417.176,375.102 430.011,375.362 422.669,367.238 412.005,367.059 				"/>
				<polygon style="fill:#F1E2CA;" points="405.083,382.419 401.471,375.891 386.536,375.589 389.36,382.227 				"/>
				<polygon style="fill:#F1E2CA;" points="388.153,382.212 385.325,375.564 374.391,375.344 376.891,382.074 				"/>
				<polygon style="fill:#F1E2CA;" points="420.689,382.61 416.564,376.196 402.749,375.916 406.355,382.435 				"/>
				<polygon style="fill:#F1E2CA;" points="409.957,365.919 406.689,360.836 394.226,360.512 397.098,365.703 				"/>
				<polygon style="fill:#F1E2CA;" points="150.961,369.724 169.39,370.096 171.833,363.018 154.413,362.725 				"/>
				<polygon style="fill:#F1E2CA;" points="110.5,368.906 133.071,369.362 137.077,362.434 115.185,362.065 				"/>
				<polygon style="fill:#F1E2CA;" points="339.945,373.542 337.099,365.799 327.107,365.631 328.96,373.32 				"/>
				<polygon style="fill:#F1E2CA;" points="88.495,368.461 109.179,368.879 113.861,362.043 94.419,361.716 				"/>
				<polygon style="fill:#F1E2CA;" points="134.332,369.388 149.74,369.699 153.191,362.705 138.341,362.455 				"/>
				<polygon style="fill:#F1E2CA;" points="197.918,363.457 185.673,363.251 184.308,370.397 196.899,370.652 				"/>
				<polygon style="fill:#F1E2CA;" points="422.014,382.626 436.74,382.806 431.029,376.488 417.897,376.223 				"/>
				<polygon style="fill:#F1E2CA;" points="170.551,370.119 183.187,370.375 184.551,363.233 172.996,363.038 				"/>
				<polygon style="fill:#F1E2CA;" points="79.733,378.438 102.442,378.716 108.432,369.97 87.541,369.548 				"/>
				<polygon style="fill:#F1E2CA;" points="313.375,374.111 197.857,371.777 196.711,379.869 314.064,381.305 				"/>
				<polygon style="fill:#F1E2CA;" points="327.817,373.297 325.965,365.611 313.652,365.404 314.382,373.025 				"/>
				<polygon style="fill:#F1E2CA;" points="132.439,370.455 109.753,369.997 103.77,378.732 127.484,379.022 				"/>
				<polygon style="fill:#F1E2CA;" points="196.743,371.754 184.098,371.499 182.532,379.696 195.596,379.856 				"/>
				<polygon style="fill:#F1E2CA;" points="149.2,370.794 133.7,370.48 128.751,379.038 145.034,379.237 				"/>
				<polygon style="fill:#F1E2CA;" points="169.011,371.194 150.421,370.818 146.259,379.252 166.145,379.495 				"/>
				<polygon style="fill:#F1E2CA;" points="182.977,371.476 170.172,371.217 167.309,379.51 181.409,379.682 				"/>
				<polygon style="fill:#F1E2CA;" points="331.201,382.62 333.503,392.175 346.913,392.495 343.338,382.769 				"/>
				<polygon style="fill:#F1E2CA;" points="182.321,380.799 180.843,388.537 194.321,388.858 195.44,380.959 				"/>
				<polygon style="fill:#F1E2CA;" points="196.554,380.973 195.434,388.885 315.063,391.736 314.17,382.412 				"/>
				<polygon style="fill:#F1E2CA;" points="315.282,382.426 316.177,391.762 332.359,392.148 330.06,382.606 				"/>
				<polygon style="fill:#F1E2CA;" points="328.085,374.408 314.488,374.133 315.176,381.319 329.793,381.498 				"/>
				<polygon style="fill:#F1E2CA;" points="128.117,380.135 124.041,387.184 140.915,387.586 144.492,380.336 				"/>
				<polygon style="fill:#F1E2CA;" points="145.717,380.351 142.133,387.615 163.168,388.116 165.765,380.596 				"/>
				<polygon style="fill:#F1E2CA;" points="166.929,380.61 164.328,388.144 179.722,388.511 181.198,380.785 				"/>
				<polygon style="fill:#F1E2CA;" points="389.832,383.338 394.208,393.621 411.509,394.034 405.699,383.532 				"/>
				<polygon style="fill:#F1E2CA;" points="422.73,383.74 429.626,394.465 447.667,394.895 437.75,383.924 				"/>
				<polygon style="fill:#F1E2CA;" points="406.971,383.547 412.789,394.064 428.291,394.434 421.405,383.724 				"/>
				<polygon style="fill:#F1E2CA;" points="344.522,382.783 348.103,392.523 360.388,392.816 357.846,382.946 				"/>
				<polygon style="fill:#F1E2CA;" points="358.992,382.96 361.536,392.843 379.874,393.28 376.119,383.17 				"/>
				<polygon style="fill:#F1E2CA;" points="353.216,364.964 351.785,359.408 335.775,358.991 337.876,364.706 				"/>
				<polygon style="fill:#F1E2CA;" points="377.304,383.184 381.064,393.308 392.995,393.592 388.626,383.323 				"/>
				<polygon style="fill:#F1E2CA;" points="103.019,379.828 98.4,386.573 122.782,387.154 126.85,380.12 				"/>
				<polygon style="fill:#F1E2CA;" points="311.867,358.37 200.167,355.464 199.188,362.373 312.433,364.278 				"/>
				<polygon style="fill:#F1E2CA;" points="198.074,362.354 199.054,355.435 187.225,355.128 185.884,362.149 				"/>
				<polygon style="fill:#F1E2CA;" points="184.762,362.13 186.105,355.098 175.829,354.831 173.375,361.939 				"/>
				<polygon style="fill:#F1E2CA;" points="336.69,364.686 334.585,358.961 325.443,358.723 326.839,364.521 				"/>
				<polygon style="fill:#F1E2CA;" points="198.013,370.674 313.269,373.003 312.539,365.385 199.032,363.476 				"/>
				<polygon style="fill:#F1E2CA;" points="172.213,361.919 174.67,354.801 158.53,354.381 154.954,361.629 				"/>
				<polygon style="fill:#F1E2CA;" points="325.697,364.501 324.298,358.693 312.981,358.399 313.546,364.297 				"/>
				<polygon style="fill:#F1E2CA;" points="92.97,361.692 81.572,361.5 75.549,368.2 87.05,368.432 				"/>
				<polygon style="fill:#F1E2CA;" points="78.773,379.532 73.118,385.97 97.082,386.541 101.691,379.812 				"/>
				<polygon style="fill:#F1E2CA;" points="86.096,369.519 74.572,369.286 66.491,378.276 78.278,378.42 				"/>
				<polygon style="fill:#F1E2CA;" points="153.732,361.608 157.313,354.349 143.24,353.983 138.974,361.36 				"/>
				<polygon style="fill:#F1E2CA;" points="65.508,379.369 59.858,385.654 71.678,385.936 77.318,379.514 				"/>
				<polygon style="fill:#F1E2CA;" points="100.711,352.877 89.583,352.588 82.551,360.411 93.926,360.602 				"/>
				<polygon style="fill:#F1E2CA;" points="137.71,361.339 141.983,353.951 121.115,353.408 115.934,360.973 				"/>
				<polygon style="fill:#F1E2CA;" points="114.61,360.95 119.799,353.374 102.149,352.914 95.376,360.627 				"/>
			</g>
			<polygon style="fill:#355463;" points="15.277,417.91 27.843,434.221 469.831,437.418 484.723,423.191 			"/>
			<g>
				<path style="fill:#F1E2CA;" d="M381.764,371.719c57.539,7.025,64.215-8.934,25.029-10.114
					C367.608,360.425,357.27,368.728,381.764,371.719z"/>
				<g>
					<polygon style="fill:#230F0E;" points="422.532,329.074 422.099,333.092 418.622,364.858 417.986,370.689 382.283,370.689 
						381.62,360.854 379.686,332.213 379.199,329.173 390.549,267.306 404.958,265.656 					"/>
					<g>
						<line style="fill:none;stroke:#5D3C13;stroke-miterlimit:10;" x1="401.194" y1="262.222" x2="414.994" y2="341.102"/>
						<line style="fill:none;stroke:#5D3C13;stroke-miterlimit:10;" x1="398.3" y1="262.222" x2="400.561" y2="339.353"/>
						<line style="fill:none;stroke:#5D3C13;stroke-miterlimit:10;" x1="393.982" y1="264.44" x2="385.401" y2="339.713"/>
					</g>
					<polygon style="fill:#A5292C;" points="389.072,268.062 390.998,256.116 396.18,252.831 397.469,245.837 400.908,245.233 
						405.866,266.136 					"/>
					<path style="fill:none;stroke:#A5292C;stroke-width:2;stroke-miterlimit:10;" d="M403.535,257.993
						c9.76-2.189,12.784,11.243,3.142,15.564"/>
					<polygon style="fill:#A5292C;" points="388.696,272.613 406.62,270.442 408.531,276.873 388.07,277.742 					"/>
					<polygon style="fill:#7AB6CC;" points="422.532,329.074 419.311,358.551 381.432,358.924 379.199,329.173 					"/>
				</g>
			</g>
			<g>
				<path style="fill:#F1E2CA;" d="M389.345,372.869c-57.539-7.025-64.215,8.934-25.029,10.114
					C403.501,384.163,413.839,375.859,389.345,372.869z"/>
				<g>
					<path style="fill:#DA7B00;" d="M392.034,380.237h-38.273c0,0-1.245-5.181-2.043-12.338c-0.906-8.239-1.245-19.103,1.583-27.721
						c2.746-8.415,8.483-14.706,19.603-14.368c9.538,0.298,14.584,8.334,17.168,18.129c1.745,6.643,2.381,14.097,2.503,20.51
						C392.778,373.337,392.034,380.237,392.034,380.237z"/>
					<polygon style="fill:#DA7B00;" points="379.446,334.133 381.6,318.38 362.094,318.38 363.489,340.196 					"/>
					<path style="fill:#DA7B00;" d="M356.519,319.975l30.351,2.035c0,0-1.652-13.744-15.175-15.248
						C358.171,305.259,356.519,319.975,356.519,319.975z"/>
					<line style="fill:none;stroke:#230F0E;stroke-miterlimit:10;" x1="362.169" y1="321.024" x2="381.231" y2="322.302"/>
					<path style="fill:#FF9D2D;" d="M392.575,364.449l-40.857,3.45c-0.906-8.239-1.245-19.103,1.583-27.721l36.772,3.761
						C391.818,350.582,392.454,358.036,392.575,364.449z"/>
					<line style="fill:none;stroke:#230F0E;stroke-miterlimit:10;" x1="364.96" y1="309.538" x2="367.725" y2="309.194"/>
					<line style="fill:none;stroke:#230F0E;stroke-miterlimit:10;" x1="367.528" y1="313.277" x2="369.841" y2="313.523"/>
					<line style="fill:none;stroke:#230F0E;stroke-miterlimit:10;" x1="371.694" y1="309.538" x2="373.924" y2="309.833"/>
					<line style="fill:none;stroke:#230F0E;stroke-miterlimit:10;" x1="374.318" y1="315.59" x2="376.138" y2="315.491"/>
					<line style="fill:none;stroke:#230F0E;stroke-miterlimit:10;" x1="377.565" y1="312.392" x2="380.172" y2="312.834"/>
				</g>
			</g>
			<g>
				<polygon style="fill:#FFFFFF;" points="293.985,226.771 285.141,258.75 276.848,288.755 269.132,316.633 204.969,317.299 
					193.575,285.846 178.527,244.331 166.402,210.865 211.34,216.466 219.504,217.479 222.644,217.876 258.584,222.362 
					260.558,222.606 268.21,223.554 				"/>
				<path style="fill:#FFAA96;" d="M222.37,221.413c8.453,17.398,22.611,31.146,37.043,5.352L222.37,221.413z"/>
				<path style="fill:#FFFFFF;" d="M223.183,219.286l-6.742,30.197l-0.923-0.128l-12.176-1.653l-24.814-3.371l-59.626-8.101
					l-36.503-30.748c76.416,1.923,113.394-16.547,131.838-0.333c2.217,1.935,4.166,4.383,5.883,7.421v0.013
					c0.897,1.602,1.743,3.358,2.525,5.294C222.824,218.338,223.003,218.812,223.183,219.286z"/>
				<path style="fill:#FFAA96;" d="M341.649,295.03c0,0-14.486,5.082-22.588,16.316l20.212,2.265l6.162-15.341L341.649,295.03z"/>
				<path style="fill:#FFFFFF;" d="M393.03,234.035l-33.164,27.253l-74.724-2.538l-12.33-0.423l-11.817-0.397l-7.626-0.256
					l5.217-35.311l0.333-2.294c0.538-0.282,1.064-0.564,1.602-0.82c2.269-1.141,4.499-2.102,6.729-2.897
					C298.24,205.097,325.419,226.114,393.03,234.035z"/>
				<line style="fill:none;stroke:#F1E2CA;stroke-miterlimit:10;" x1="285.141" y1="258.75" x2="289.202" y2="244.066"/>
				<path style="fill:#A5292C;" d="M273.029,302.572l-3.896,14.061l-64.163,0.667l-6.332-17.47l9.216-9.075l10.369-81.159
					c0.667,0.923,1.295,1.91,1.897,2.974v0.013l-0.615,4.896l-3.986,31.876l-2.487,19.88l48.167,4.691l-0.205-15.996l-0.436-35.324
					l-0.038-3.358c0.577-0.295,1.154-0.564,1.717-0.833l2.64,71.11L273.029,302.572z"/>
				<g>
					<g>
						<polyline style="fill:none;stroke:#355463;stroke-width:3;stroke-miterlimit:10;" points="340.101,342.793 349.492,320.327 
							312.499,306.538 305.167,324.317 						"/>
						<g>
							<polygon style="fill:#844F38;" points="349.031,313.574 348.006,315.916 347.481,317.112 346.468,319.428 345.931,320.635 
								343.502,326.184 313.837,314.128 315.253,308.897 315.604,307.616 316.543,304.142 316.882,302.873 317.383,301.038 							
								"/>
							<path style="fill:#966146;" d="M348.006,315.916l-0.525,1.196c-10.309-4.313-20.617-8.64-30.938-12.97l0.339-1.269
								c2.839,1.194,5.678,2.375,8.505,3.566C332.927,309.589,340.466,312.752,348.006,315.916z"/>
							<path style="fill:#966146;" d="M346.468,319.428l-0.537,1.207l-30.678-11.738l0.35-1.281c1.991,0.764,3.993,1.53,5.984,2.294
								L346.468,319.428z"/>
						</g>
					</g>
					<g>
						<path style="fill:#5D3C13;" d="M154.344,323.663c0,0,60.869,61.997,200.923,21.597
							C273.634,284.211,154.344,323.663,154.344,323.663z"/>
						<g>
							<defs>
								<path id="SVGID_00000078040919376867638600000012488316160430453911_" d="M154.344,323.663
									c0,0,60.869,61.997,200.923,21.597C273.634,284.211,154.344,323.663,154.344,323.663z"/>
							</defs>
							<clipPath id="SVGID_00000039117827997272548950000008357489470233570989_">
								<use xlink:href="#SVGID_00000078040919376867638600000012488316160430453911_"  style="overflow:visible;"/>
							</clipPath>
							<g style="clip-path:url(#SVGID_00000039117827997272548950000008357489470233570989_);">
								<path style="fill:#8C650E;" d="M170.578,344.299c-6.233-10.057-10.985-21.007-14.101-32.421
									c-3.129-11.461-4.645-23.362-4.435-35.242c0.118-6.656,0.78-13.296,1.976-19.845c0.167-0.916-1.279-1.003-1.444-0.096
									c-2.149,11.765-2.541,23.816-1.257,35.704c1.278,11.833,4.232,23.486,8.75,34.497c2.566,6.253,5.647,12.287,9.208,18.033
									C169.761,345.715,171.068,345.091,170.578,344.299z"/>
								<path style="fill:#8C650E;" d="M188.84,373.888c-7.884-11.833-14.398-24.575-19.438-37.869
									c-5.023-13.249-8.565-27.061-10.545-41.092c-1.123-7.957-1.734-15.98-1.829-24.015c-0.011-0.927-1.456-1.029-1.445-0.096
									c0.17,14.4,1.977,28.766,5.37,42.761c3.368,13.89,8.276,27.416,14.623,40.222c3.602,7.268,7.677,14.291,12.174,21.041
									C188.266,375.614,189.35,374.653,188.84,373.888z"/>
								<path style="fill:#8C650E;" d="M199.246,382.183c-9.336-14.725-16.342-30.887-20.805-47.738
									c-4.463-16.851-6.424-34.363-5.719-51.783c0.396-9.781,1.626-19.526,3.714-29.09c0.197-0.9-1.174-1.371-1.373-0.459
									c-3.739,17.127-4.78,34.775-3.213,52.232c1.574,17.534,5.786,34.833,12.473,51.12c1.195,2.91,2.499,5.773,3.853,8.611
									c-6.105-9.949-11.086-20.584-14.843-31.637c-4.87-14.326-7.7-29.383-8.324-44.503c-0.349-8.458-0.007-16.938,1.027-25.339
									c0.114-0.927-1.331-1.018-1.445-0.096c-1.866,15.165-1.455,30.59,1.11,45.651c2.556,15.008,7.247,29.667,13.913,43.355
									c3.757,7.714,8.153,15.108,13.124,22.102c0.145,0.204,0.328,0.277,0.51,0.27c1.501,2.682,3.05,5.338,4.696,7.935
									C198.436,383.592,199.744,382.969,199.246,382.183z"/>
								<path style="fill:#8C650E;" d="M203.301,382.021c-8.548-14.225-14.69-29.836-18.258-46.039
									c-3.579-16.252-4.591-33.058-2.925-49.618c0.937-9.314,2.731-18.528,5.376-27.508c0.262-0.891-1.109-1.356-1.373-0.459
									c-4.75,16.13-6.775,33.026-6.104,49.822c0.666,16.67,3.932,33.208,9.715,48.859c3.282,8.884,7.388,17.455,12.266,25.573
									C202.474,383.445,203.781,382.82,203.301,382.021z"/>
								<path style="fill:#8C650E;" d="M208.973,381.106c-7.534-16.028-12.715-33.114-15.463-50.607
									c-2.74-17.439-3.059-35.25-0.919-52.774c1.208-9.891,3.214-19.674,5.998-29.241c0.26-0.892-1.112-1.357-1.373-0.459
									c-4.983,17.118-7.477,34.937-7.471,52.763c0.006,17.826,2.471,35.653,7.371,52.793c2.758,9.648,6.284,19.073,10.553,28.155
									C208.067,382.581,209.37,381.949,208.973,381.106z"/>
								<path style="fill:#8C650E;" d="M222.185,394.942c-8.355-13.224-14.654-27.714-18.698-42.822
									c-4.045-15.109-5.875-30.807-5.347-46.441c0.297-8.788,1.335-17.552,3.134-26.159c0.188-0.901-1.182-1.372-1.373-0.459
									c-3.231,15.455-4.063,31.346-2.568,47.062c1.493,15.692,5.311,31.164,11.307,45.743c3.388,8.238,7.484,16.177,12.242,23.707
									C221.374,396.352,222.682,395.728,222.185,394.942z"/>
								<path style="fill:#8C650E;" d="M221.93,386.087c-6.839-13.566-11.46-28.19-13.782-43.2
									c-2.321-15.005-2.343-30.361-0.034-45.369c1.304-8.477,3.374-16.827,6.174-24.934c0.304-0.88-1.068-1.342-1.373-0.459
									c-5.013,14.516-7.664,29.824-7.941,45.176c-0.277,15.352,1.782,30.755,6.161,45.474c2.452,8.243,5.621,16.263,9.492,23.943
									C221.046,387.55,222.35,386.92,221.93,386.087z"/>
								<path style="fill:#8C650E;" d="M230.818,398.798c-5.75-14.452-9.758-29.576-11.981-44.969
									c-2.208-15.286-2.649-30.822-1.299-46.208c0.766-8.734,2.111-17.414,4.035-25.968c0.202-0.9-1.168-1.37-1.373-0.459
									c-3.441,15.297-5.069,30.98-4.851,46.658c0.219,15.673,2.244,31.321,6.067,46.523c2.142,8.518,4.852,16.892,8.099,25.054
									C229.86,400.296,231.161,399.659,230.818,398.798z"/>
								<path style="fill:#8C650E;" d="M234.998,394.366c-3.14-11.902-5.092-24.118-5.786-36.409
									c-0.692-12.241-0.171-24.55,1.563-36.687c0.985-6.892,2.37-13.72,4.137-20.453c0.235-0.896-1.136-1.363-1.373-0.459
									c-3.142,11.974-5.083,24.256-5.776,36.616c-0.693,12.357-0.152,24.787,1.614,37.037c0.791,5.489,1.844,10.937,3.131,16.331
									c-3.709-11.043-6.274-22.463-7.654-34.031c-1.519-12.728-1.603-25.624-0.256-38.371c0.759-7.182,1.979-14.308,3.653-21.333
									c0.214-0.899-1.157-1.368-1.373-0.459c-3.013,12.645-4.585,25.618-4.671,38.617c-0.086,12.939,1.268,25.893,4.059,38.529
									c1.573,7.12,3.61,14.131,6.076,20.992c0.211,0.589,0.858,0.488,1.172,0.1c0.022,0.085,0.041,0.171,0.063,0.255
									C233.813,395.538,235.236,395.268,234.998,394.366z"/>
								<path style="fill:#8C650E;" d="M246.237,295.152c-3.988,11.248-6.989,22.834-8.978,34.601
									c-2.007,11.871-2.976,23.918-2.884,35.957c0.051,6.706,0.435,13.409,1.136,20.078c0.098,0.928,1.518,0.646,1.422-0.274
									c-1.241-11.802-1.446-23.703-0.624-35.541c0.822-11.836,2.663-23.6,5.515-35.118c1.611-6.505,3.546-12.928,5.786-19.244
									C247.922,294.733,246.549,294.272,246.237,295.152z"/>
								<path style="fill:#8C650E;" d="M249.887,307.416c0.201-0.9-1.17-1.37-1.373-0.459c-4.899,21.961-8.208,44.272-9.855,66.713
									c-0.461,6.275-0.789,12.56-0.994,18.849c-0.03,0.93,1.414,1.029,1.445,0.096c0.724-22.309,3.063-44.56,7.013-66.529
									C247.247,319.837,248.505,313.613,249.887,307.416z"/>
								<path style="fill:#8C650E;" d="M253.154,305.949c-2.905,20.066-5.809,40.131-8.714,60.197
									c-0.819,5.656-1.638,11.313-2.456,16.969c-0.134,0.924,1.312,1.013,1.445,0.096c2.905-20.066,5.809-40.131,8.714-60.197
									c0.819-5.656,1.638-11.313,2.457-16.97C254.733,305.121,253.287,305.031,253.154,305.949z"/>
								<path style="fill:#8C650E;" d="M260.414,307.212c-3.868,22.583-7.735,45.165-11.603,67.748
									c-1.079,6.299-2.158,12.599-3.237,18.898c-0.157,0.919,1.288,1.007,1.444,0.096c3.868-22.583,7.735-45.165,11.603-67.748
									c1.079-6.299,2.158-12.599,3.237-18.898C262.016,306.389,260.57,306.301,260.414,307.212z"/>
								<path style="fill:#8C650E;" d="M269.325,296.556c-0.604,11.669-1.824,23.304-3.667,34.842
									c-1.851,11.592-4.33,23.082-7.418,34.408c-1.743,6.394-3.684,12.732-5.809,19.009c-0.299,0.882,1.074,1.344,1.373,0.459
									c3.785-11.178,6.974-22.554,9.536-34.074c2.538-11.409,4.474-22.951,5.788-34.565c0.751-6.643,1.296-13.308,1.641-19.984
									C270.817,295.721,269.373,295.624,269.325,296.556z"/>
								<path style="fill:#8C650E;" d="M274.814,310.338c-0.852,11.258-2.56,22.446-5.13,33.44
									c-2.559,10.943-5.95,21.692-10.14,32.121c-2.395,5.961-5.052,11.814-7.962,17.541c-0.417,0.82,0.786,1.628,1.209,0.797
									c5.146-10.127,9.525-20.635,13.063-31.43c3.554-10.845,6.267-21.964,8.117-33.225c1.043-6.346,1.802-12.735,2.287-19.147
									C276.329,309.503,274.884,309.407,274.814,310.338z"/>
								<path style="fill:#8C650E;" d="M288.026,304.133c-1.22,21.064-6.381,41.845-15.127,61.045
									c-2.472,5.428-5.24,10.717-8.272,15.853c-0.471,0.799,0.734,1.602,1.209,0.797c10.82-18.333,18.177-38.638,21.643-59.64
									c0.982-5.946,1.642-11.942,1.991-17.959C289.524,303.297,288.08,303.201,288.026,304.133z"/>
								<path style="fill:#8C650E;" d="M293.577,311.21c-1.011,10.786-3.132,21.45-6.32,31.803
									c-3.186,10.348-7.417,20.375-12.632,29.864c-2.932,5.334-6.173,10.493-9.697,15.455c-0.539,0.759,0.669,1.557,1.209,0.797
									c6.313-8.889,11.698-18.42,16.078-28.404c4.396-10.021,7.767-20.493,10.032-31.199c1.273-6.015,2.201-12.099,2.775-18.22
									C295.108,310.376,293.664,310.283,293.577,311.21z"/>
								<path style="fill:#8C650E;" d="M302.605,310.21c-5.089,21.416-12.103,42.368-20.955,62.523
									c-2.53,5.76-5.21,11.453-8.035,17.075c-0.413,0.822,0.79,1.63,1.209,0.796c9.964-19.827,18.144-40.539,24.367-61.84
									c1.75-5.99,3.343-12.025,4.786-18.096C304.192,309.77,302.821,309.301,302.605,310.21z"/>
								<path style="fill:#8C650E;" d="M307.543,309.53c-2.334,21.066-8.785,41.655-18.883,60.291
									c-2.858,5.275-6.007,10.387-9.423,15.319c-0.53,0.766,0.678,1.564,1.209,0.797c6.075-8.771,11.289-18.125,15.573-27.897
									c4.322-9.859,7.685-20.138,10.02-30.647c1.303-5.864,2.287-11.796,2.949-17.767
									C309.091,308.698,307.646,308.605,307.543,309.53z"/>
								<path style="fill:#8C650E;" d="M311.746,313.16c-1.985,20.399-8.112,40.369-17.903,58.375
									c-2.756,5.068-5.801,9.974-9.109,14.699c-0.534,0.763,0.674,1.561,1.209,0.797c11.863-16.941,20.267-36.275,24.575-56.503
									c1.215-5.703,2.108-11.469,2.672-17.272C313.281,312.326,311.836,312.233,311.746,313.16z"/>
								<path style="fill:#8C650E;" d="M320.823,313.79c-3.593,20.676-10.814,40.713-21.217,58.938
									c-2.922,5.119-6.096,10.091-9.5,14.902c-0.538,0.76,0.671,1.558,1.209,0.797c12.229-17.286,21.426-36.701,27.055-57.114
									c1.583-5.742,2.877-11.56,3.897-17.427C322.427,312.967,320.982,312.88,320.823,313.79z"/>
								<path style="fill:#8C650E;" d="M328.951,309.439c0.04-0.931-1.405-1.029-1.445-0.096
									c-0.873,20.401-6.835,40.513-17.17,58.123c-2.902,4.944-6.145,9.68-9.699,14.179c-0.577,0.73,0.634,1.525,1.209,0.797
									c12.752-16.144,21.395-35.403,25.138-55.623C328.047,321.079,328.701,315.27,328.951,309.439z"/>
								<path style="fill:#8C650E;" d="M336.648,309.208c0.045-0.931-1.399-1.028-1.445-0.096
									c-0.938,19.211-6.48,38.138-16.02,54.838c-2.679,4.69-5.671,9.194-8.946,13.488c-0.565,0.74,0.645,1.536,1.209,0.797
									c11.788-15.455,19.794-33.686,23.32-52.794C335.756,320.079,336.382,314.655,336.648,309.208z"/>
								<path style="fill:#8C650E;" d="M347.194,305.085c-2.161,17.658-8.202,34.793-17.549,49.927
									c-1.215,1.968-2.493,3.896-3.818,5.791c6.44-11.068,11.396-22.999,14.641-35.389c1.23-4.698,2.212-9.459,2.957-14.258
									c0.143-0.922-1.302-1.011-1.444-0.096c-2.645,17.04-8.472,33.572-17.086,48.511c-2.395,4.154-5.006,8.18-7.812,12.068
									c-0.545,0.755,0.664,1.552,1.209,0.797c0.986-1.365,1.924-2.763,2.86-4.163c0.302,0.184,0.731,0.195,1.013-0.157
									c11.235-14.024,19.37-30.5,23.707-47.937c1.228-4.937,2.15-9.948,2.768-14.997
									C348.752,304.254,347.307,304.162,347.194,305.085z"/>
								<path style="fill:#8C650E;" d="M352.207,305.404c-1.904,17.303-7.775,34.113-17.012,48.865
									c-2.601,4.155-5.47,8.137-8.577,11.928c-0.589,0.719,0.623,1.512,1.209,0.797c11.146-13.604,19.144-29.744,23.265-46.839
									c1.163-4.825,2.016-9.722,2.559-14.655C353.754,304.572,352.309,304.479,352.207,305.404z"/>
								<path style="fill:#8C650E;" d="M357.474,301.644c-2.016,16.829-7.685,33.182-16.492,47.664
									c-2.448,4.026-5.139,7.9-8.046,11.608c-0.574,0.732,0.637,1.527,1.209,0.797c10.571-13.481,18.199-29.241,22.235-45.89
									c1.125-4.639,1.97-9.343,2.538-14.082C359.03,300.812,357.585,300.721,357.474,301.644z"/>
								<path style="fill:#8C650E;" d="M361.991,304.782c-3.373,13.577-8.54,26.696-15.381,38.901
									c-1.917,3.42-3.965,6.766-6.13,10.034c-0.514,0.776,0.693,1.576,1.209,0.797c7.764-11.719,13.967-24.468,18.373-37.818
									c1.246-3.775,2.344-7.597,3.302-11.455C363.587,304.343,362.216,303.875,361.991,304.782z"/>
								<path style="fill:#8C650E;" d="M366.723,305.543c-3.578,12.487-8.66,24.527-15.152,35.779
									c-1.828,3.168-3.767,6.271-5.806,9.308c-0.519,0.773,0.689,1.572,1.209,0.797c7.278-10.839,13.238-22.558,17.693-34.832
									c1.266-3.49,2.407-7.024,3.43-10.592C368.352,305.109,366.98,304.644,366.723,305.543z"/>
							</g>
						</g>
						<g>
							<path style="fill:#E0C11E;" d="M164.178,344.337c9.09-29.588,23.708-13.766,23.708-13.766
								c12.563-16.333,26.642-4.826,26.642-4.826c12.563-19.614,28.856-11.785,29.767,2.88c19.55-18.855,40.043-0.895,40.043-0.895
								c10.238-15.417,20.963,7.455,20.963,7.455c21.566-17.806,25.492,4.965,25.492,4.965s22.417-4.419,11.778,14.326
								C342.57,354.476,229.983,394.851,164.178,344.337z"/>
							<g>
								<defs>
									<path id="SVGID_00000000927805668543102390000011859409655728637372_" d="M164.178,344.337
										c9.09-29.588,23.708-13.766,23.708-13.766c12.563-16.333,26.642-4.826,26.642-4.826
										c12.563-19.614,28.856-11.785,29.767,2.88c19.55-18.855,40.043-0.895,40.043-0.895
										c10.238-15.417,20.963,7.455,20.963,7.455c21.566-17.806,25.492,4.965,25.492,4.965s22.417-4.419,11.778,14.326
										C342.57,354.476,229.983,394.851,164.178,344.337z"/>
								</defs>
								<clipPath id="SVGID_00000093176825946764604960000009546581388539164593_">
									<use xlink:href="#SVGID_00000000927805668543102390000011859409655728637372_"  style="overflow:visible;"/>
								</clipPath>
								<g style="clip-path:url(#SVGID_00000093176825946764604960000009546581388539164593_);">
									<path style="fill:#F1E2CA;" d="M232.041,309.237c-11.79,11.363-18.025,27.713-16.688,44.045
										c0.4,4.881,1.439,9.692,3.104,14.298c0.279,0.771,1.521,0.451,1.24-0.325c-5.621-15.551-3.77-33.076,5.056-47.064
										c2.315-3.669,5.072-7.037,8.195-10.047C233.541,309.571,232.635,308.664,232.041,309.237z"/>
									<path style="fill:#F1E2CA;" d="M235.002,312.412c0.514-0.634-0.386-1.547-0.906-0.906
										c-10.409,12.828-14.639,29.859-11.332,46.059c0.947,4.638,2.499,9.138,4.582,13.386c0.364,0.742,1.477,0.105,1.115-0.633
										c-7.175-14.63-7.362-32.073-0.412-46.82C229.914,319.54,232.246,315.809,235.002,312.412z"/>
									<path style="fill:#F1E2CA;" d="M233.338,325.878c1.603-4.972,3.829-9.722,6.601-14.149
										c0.438-0.699-0.677-1.332-1.115-0.633c-10.021,16.005-12.515,36.002-6.656,53.96c1.625,4.979,3.851,9.753,6.627,14.194
										c0.437,0.699,1.553,0.067,1.115-0.633C230.116,362.945,227.667,343.47,233.338,325.878z"/>
									<path style="fill:#F1E2CA;" d="M279.767,320.182c-10.48-0.079-20.824,3.669-28.94,10.276
										c-2.311,1.881-4.419,3.997-6.298,6.309c-0.515,0.634,0.386,1.547,0.906,0.906c6.458-7.95,15.701-13.43,25.742-15.412
										c2.829-0.559,5.705-0.819,8.589-0.797C280.594,321.47,280.593,320.188,279.767,320.182z"/>
									<path style="fill:#F1E2CA;" d="M284.132,323.432c-11.426,1.261-22.342,5.922-31.199,13.245
										c-2.53,2.092-4.872,4.4-7.008,6.892c-0.533,0.622,0.369,1.534,0.906,0.906c7.317-8.539,17.135-14.811,27.943-17.912
										c3.06-0.878,6.193-1.501,9.358-1.85C284.944,324.624,284.952,323.342,284.132,323.432z"/>
									<path style="fill:#F1E2CA;" d="M283.513,325.653c-11.462,2.876-21.888,9.579-29.334,18.748
										c-2.085,2.567-3.936,5.314-5.52,8.217c-0.394,0.722,0.718,1.36,1.115,0.633c5.523-10.118,14.359-18.276,24.816-23.105
										c2.974-1.373,6.072-2.456,9.249-3.253C284.64,326.691,284.313,325.452,283.513,325.653z"/>
									<path style="fill:#F1E2CA;" d="M288.309,329.996c-0.787-2.896-1.812-5.722-3.04-8.46c-0.338-0.753-1.45-0.113-1.115,0.633
										c4.257,9.488,5.792,20.175,4.42,30.483c-0.382,2.874-0.995,5.712-1.814,8.492c-0.233,0.792,1.007,1.117,1.24,0.325
										C291.007,351.266,291.098,340.259,288.309,329.996z"/>
									<path style="fill:#F1E2CA;" d="M292.304,330.672c-1.469-3.498-3.302-6.834-5.464-9.951
										c-0.467-0.673-1.585-0.045-1.115,0.633c7.53,10.854,10.869,24.36,9.504,37.484c-0.387,3.718-1.177,7.389-2.326,10.945
										c-0.254,0.785,0.987,1.109,1.24,0.325C298.289,357.279,297.515,343.079,292.304,330.672z"/>
									<path style="fill:#F1E2CA;" d="M295.785,328.943c-1.99-3.324-4.347-6.425-7.02-9.229c-0.569-0.598-1.475,0.309-0.906,0.906
										c9.3,9.759,14.458,23.173,14.42,36.628c-0.011,3.766-0.436,7.516-1.276,11.187c-0.183,0.802,1.055,1.132,1.24,0.325
										C305.322,355.3,302.868,340.773,295.785,328.943z"/>
								</g>
								<path style="clip-path:url(#SVGID_00000093176825946764604960000009546581388539164593_);fill:#F1E2CA;" d="M198.031,319.62
									c-0.644-0.497-1.558,0.403-0.906,0.906c6.106,4.716,10.183,11.844,11.035,19.526c0.09,0.812,1.373,0.82,1.282,0
									C208.553,332.044,204.419,324.554,198.031,319.62z"/>
								<path style="clip-path:url(#SVGID_00000093176825946764604960000009546581388539164593_);fill:#F1E2CA;" d="
									M195.622,321.181c-0.509-0.647-1.411,0.265-0.906,0.906c6.061,7.694,9.09,17.568,8.478,27.333
									c-0.052,0.825,1.23,0.821,1.282,0C205.11,339.295,201.893,329.142,195.622,321.181z"/>
								<path style="clip-path:url(#SVGID_00000093176825946764604960000009546581388539164593_);fill:#F1E2CA;" d="
									M195.811,331.995c-1.011-2.721-2.269-5.341-3.767-7.828c-0.425-0.707-1.541-0.074-1.115,0.633
									c5.166,8.58,7.368,18.785,6.327,28.739c-0.295,2.821-0.873,5.606-1.691,8.32c-0.238,0.79,1.002,1.116,1.24,0.325
									C199.767,352.363,199.383,341.607,195.811,331.995z"/>
								<path style="clip-path:url(#SVGID_00000093176825946764604960000009546581388539164593_);fill:#F1E2CA;" d="M182.29,321.943
									c-6.669,5.366-10.731,13.653-11.2,22.172c-0.134,2.44,0.049,4.887,0.52,7.285c0.16,0.812,1.398,0.481,1.24-0.325
									c-1.587-8.07,0.549-16.683,5.485-23.232c1.402-1.861,3.046-3.534,4.861-4.993
									C183.839,322.332,182.927,321.43,182.29,321.943z"/>
								<path style="clip-path:url(#SVGID_00000093176825946764604960000009546581388539164593_);fill:#F1E2CA;" d="M182.067,325.06
									c-4.809,9.608-4.918,21.218-0.303,30.918c0.355,0.746,1.467,0.108,1.115-0.633c-4.414-9.277-4.295-20.467,0.303-29.652
									C183.55,324.959,182.438,324.319,182.067,325.06z"/>
								<path style="clip-path:url(#SVGID_00000093176825946764604960000009546581388539164593_);fill:#F1E2CA;" d="
									M337.782,334.443c-1.911-3.73-6.891-3.92-10.527-3.556c-4.53,0.453-8.939,2.005-12.752,4.496
									c-2.175,1.421-4.147,3.132-5.85,5.093c-0.538,0.619,0.364,1.53,0.906,0.906c3.546-4.082,8.275-7.032,13.497-8.435
									c2.481-0.666,5.115-1.04,7.687-0.881c2.27,0.14,4.812,0.839,5.924,3.01C337.044,335.812,338.157,335.175,337.782,334.443z"
									/>
								<path style="clip-path:url(#SVGID_00000093176825946764604960000009546581388539164593_);fill:#F1E2CA;" d="M335.462,336.87
									c-0.465-1.943-2.315-3.126-4.23-3.282c-2.337-0.19-4.669,0.96-6.691,2.004c-3.867,1.997-7.349,4.776-10.167,8.091
									c-1.607,1.891-3.003,3.951-4.16,6.146c-0.383,0.727,0.729,1.366,1.115,0.633c2.304-4.372,5.589-8.212,9.587-11.124
									c1.961-1.429,4.083-2.655,6.318-3.604c2.17-0.922,6.223-1.739,6.988,1.46C334.415,337.999,335.654,337.672,335.462,336.87z"
									/>
							</g>
						</g>
						<path style="fill:#221610;" d="M355.267,345.259c-46.116,85.478-180.249,87.362-200.923-21.597
							C154.344,323.663,215.213,385.659,355.267,345.259z"/>
						<g>
							<polygon style="fill:#64782C;" points="272.038,349.415 274.335,345.969 276.14,348.431 274.089,351.548 							"/>
							<polygon style="fill:#64782C;" points="206.242,331.409 207.554,327.878 211,330.752 210.18,333.542 							"/>
							<polygon style="fill:#64782C;" points="255.803,325.809 258.428,324.271 259.413,327.06 254.805,328.288 							"/>
							<polygon style="fill:#64782C;" points="296.455,332.639 298.588,331.327 301.05,333.788 298.753,335.757 							"/>
							<polygon style="fill:#64782C;" points="325.525,344.328 329.135,344.328 329.135,347.61 325.525,346.626 							"/>
							<polygon style="fill:#64782C;" points="229.018,350.728 230.823,348.102 232.628,349.907 230.823,352.697 							"/>
						</g>
						<g>
							<path style="fill:#BA1913;" d="M184.321,336.226c2.947,0.89,1.849,3.125-0.226,2.263
								C182.02,337.626,183.2,335.887,184.321,336.226z"/>
							<path style="fill:#BA1913;" d="M223.541,329.892c1.329-2.658,3.625-0.661,2.538,0.818
								C224.991,332.188,222.212,332.551,223.541,329.892z"/>
							<path style="fill:#BA1913;" d="M244.446,341.251c-1.487-2.06,2.9-1.933,2.658,0
								C246.862,343.184,246.016,343.426,244.446,341.251z"/>
							<path style="fill:#BA1913;" d="M278.159,335.757c1.45-2.844,3.746-1.017,2.538,0.426
								C279.488,337.626,276.709,338.6,278.159,335.757z"/>
							<path style="fill:#BA1913;" d="M308.429,339.151c-1.408,0.421-0.914,3.289,0.647,2.654
								C310.637,341.171,311.296,338.294,308.429,339.151z"/>
						</g>
						<g>
							<line style="fill:none;stroke:#B1AB10;stroke-miterlimit:10;" x1="234.398" y1="340.445" x2="237.023" y2="338.683"/>
							<line style="fill:none;stroke:#A32634;stroke-miterlimit:10;" x1="240.149" y1="351.548" x2="242.388" y2="352.697"/>
							<line style="fill:none;stroke:#A32634;stroke-miterlimit:10;" x1="263.288" y1="352.122" x2="262.541" y2="348.759"/>
							<line style="fill:none;stroke:#B1AB10;stroke-miterlimit:10;" x1="266.721" y1="334.261" x2="269.259" y2="335.757"/>
							<line style="fill:none;stroke:#A32634;stroke-miterlimit:10;" x1="233.282" y1="322.133" x2="235.711" y2="323.663"/>
							<line style="fill:none;stroke:#A32634;stroke-miterlimit:10;" x1="220.145" y1="345.969" x2="223.188" y2="344.328"/>
							<line style="fill:none;stroke:#A32634;stroke-miterlimit:10;" x1="207.754" y1="339.753" x2="209.993" y2="341.273"/>
							<line style="fill:none;stroke:#B1AB10;stroke-miterlimit:10;" x1="192.975" y1="331.857" x2="194.318" y2="328.59"/>
							<line style="fill:none;stroke:#A32634;stroke-miterlimit:10;" x1="286.277" y1="333.542" x2="288.495" y2="330.71"/>
							<line style="fill:none;stroke:#A32634;stroke-miterlimit:10;" x1="287.386" y1="345.969" x2="290.28" y2="347.61"/>
							<line style="fill:none;stroke:#B1AB10;stroke-miterlimit:10;" x1="302.4" y1="352.697" x2="304.341" y2="350.44"/>
							<line style="fill:none;stroke:#A32634;stroke-miterlimit:10;" x1="316.582" y1="332.126" x2="318.672" y2="333.542"/>
							<line style="fill:none;stroke:#B1AB10;stroke-miterlimit:10;" x1="334.496" y1="347.61" x2="335.691" y2="345.969"/>
						</g>
						<g>
							<defs>
								<path id="SVGID_00000060022327962803335500000003276674248231906718_" d="M355.267,345.259
									c-46.116,85.478-180.249,87.362-200.923-21.597C154.344,323.663,215.213,385.659,355.267,345.259z"/>
							</defs>
							<clipPath id="SVGID_00000183938799727395084760000015420444652886286472_">
								<use xlink:href="#SVGID_00000060022327962803335500000003276674248231906718_"  style="overflow:visible;"/>
							</clipPath>
							<g style="clip-path:url(#SVGID_00000183938799727395084760000015420444652886286472_);">
								<path style="fill:#5D3C13;" d="M179.869,384.603c-6.094-8.52-10.933-17.916-14.353-27.817
									c-3.434-9.942-5.47-20.367-5.979-30.874c-0.285-5.887-0.089-11.792,0.585-17.647c0.094-0.819-1.188-0.811-1.282,0
									c-1.211,10.519-0.852,21.188,0.977,31.615c1.821,10.379,5.112,20.5,9.747,29.964c2.632,5.374,5.707,10.525,9.189,15.392
									C179.23,385.901,180.348,385.273,179.869,384.603z"/>
								<path style="fill:#5D3C13;" d="M197.732,409.674c-7.657-9.993-14.156-20.868-19.386-32.317
									c-5.212-11.411-9.149-23.406-11.719-35.685c-1.457-6.964-2.466-14.016-3.02-21.108c-0.064-0.818-1.346-0.824-1.282,0
									c0.992,12.711,3.428,25.297,7.245,37.462c3.788,12.074,8.914,23.736,15.27,34.678c3.607,6.21,7.618,12.176,11.985,17.876
									C197.326,411.233,198.227,410.32,197.732,409.674z"/>
								<path style="fill:#5D3C13;" d="M207.41,416.394c-9.108-12.462-16.243-26.331-21.171-40.956
									c-4.928-14.626-7.684-29.982-8.081-45.412c-0.223-8.664,0.295-17.345,1.58-25.916c0.121-0.807-1.118-1.142-1.24-0.325
									c-2.301,15.349-2.189,31,0.216,46.331c2.415,15.398,7.148,30.434,14.008,44.431c1.226,2.501,2.545,4.954,3.907,7.382
									c-5.975-8.433-10.997-17.536-14.963-27.081c-5.14-12.371-8.52-25.508-9.956-38.828c-0.803-7.451-0.997-14.963-0.575-22.445
									c0.047-0.825-1.235-0.822-1.282,0c-0.762,13.507,0.503,27.109,3.65,40.264c3.135,13.109,8.137,25.785,14.826,37.487
									c3.77,6.595,8.086,12.87,12.886,18.758c0.14,0.171,0.306,0.225,0.466,0.209c1.483,2.282,3.006,4.538,4.613,6.736
									C206.777,417.686,207.896,417.059,207.41,416.394z"/>
								<path style="fill:#5D3C13;" d="M210.983,416.014c-8.384-12.067-14.722-25.499-18.822-39.604
									c-4.112-14.148-5.989-28.936-5.486-43.662c0.283-8.283,1.329-16.528,3.14-24.616c0.18-0.803-1.059-1.133-1.24-0.325
									c-3.253,14.527-4.054,29.572-2.479,44.371c1.564,14.688,5.416,29.106,11.44,42.595c3.419,7.656,7.548,14.988,12.332,21.874
									C210.336,417.32,211.454,416.691,210.983,416.014z"/>
								<path style="fill:#5D3C13;" d="M215.94,414.873c-7.593-13.719-13.169-28.51-16.62-43.803
									c-3.44-15.245-4.764-30.962-3.898-46.568c0.489-8.809,1.688-17.568,3.589-26.183c0.177-0.803-1.062-1.134-1.24-0.325
									c-3.401,15.414-4.562,31.301-3.515,47.049c1.047,15.747,4.268,31.352,9.599,46.208c3.001,8.362,6.667,16.482,10.969,24.256
									C215.226,416.229,216.34,415.595,215.94,414.873z"/>
								<path style="fill:#5D3C13;" d="M228.421,426.323c-8.154-11.194-14.566-23.627-19.023-36.737
									c-4.457-13.111-6.992-26.872-7.44-40.714c-0.252-7.781,0.153-15.584,1.239-23.293c0.114-0.807-1.125-1.143-1.24-0.325
									c-1.95,13.842-1.756,27.93,0.484,41.726c2.236,13.775,6.514,27.221,12.664,39.749c3.475,7.079,7.558,13.853,12.201,20.228
									C227.787,427.617,228.906,426.989,228.421,426.323z"/>
								<path style="fill:#5D3C13;" d="M227.678,418.516c-6.835-11.584-11.772-24.234-14.702-37.358
									c-2.928-13.12-3.845-26.685-2.683-40.078c0.656-7.565,1.997-15.063,3.996-22.388c0.217-0.796-1.022-1.123-1.24-0.325
									c-3.58,13.117-5.026,26.796-4.374,40.374c0.653,13.578,3.373,27.065,8.102,39.812c2.648,7.138,5.916,14.039,9.786,20.596
									C226.982,419.86,228.097,419.227,227.678,418.516z"/>
								<path style="fill:#5D3C13;" d="M236.273,429.225c-5.924-12.431-10.35-25.557-13.214-39.026
									c-2.844-13.375-4.142-27.074-3.85-40.745c0.166-7.761,0.846-15.507,2.046-23.177c0.126-0.807-1.112-1.142-1.24-0.325
									c-2.145,13.715-2.667,27.665-1.557,41.503c1.11,13.833,3.814,27.538,8.08,40.745c2.39,7.4,5.275,14.639,8.62,21.659
									C235.514,430.604,236.626,429.966,236.273,429.225z"/>
								<path style="fill:#5D3C13;" d="M239.707,425.066c-3.47-10.331-5.909-21.009-7.241-31.826
									c-1.327-10.773-1.587-21.678-0.764-32.502c0.467-6.146,1.291-12.259,2.459-18.311c0.155-0.806-1.083-1.138-1.24-0.325
									c-2.076,10.762-3.072,21.725-2.961,32.685c0.111,10.956,1.315,21.906,3.592,32.625c1.02,4.803,2.269,9.554,3.721,14.244
									c-3.922-9.538-6.857-19.478-8.752-29.616c-2.086-11.155-2.915-22.543-2.47-33.883c0.251-6.389,0.912-12.756,1.98-19.06
									c0.137-0.807-1.102-1.141-1.24-0.325c-1.922,11.347-2.552,22.9-1.868,34.388c0.681,11.436,2.634,22.801,5.839,33.8
									c1.806,6.198,4.016,12.272,6.596,18.189c0.221,0.507,0.787,0.38,1.041,0.019c0.025,0.074,0.046,0.148,0.071,0.222
									C238.729,426.17,239.97,425.849,239.707,425.066z"/>
								<path style="fill:#5D3C13;" d="M243.834,336.76c-2.866,10.17-4.839,20.581-5.908,31.092
									c-1.079,10.604-1.23,21.303-0.445,31.934c0.437,5.921,1.168,11.82,2.178,17.671c0.141,0.814,1.379,0.482,1.24-0.325
									c-1.786-10.353-2.664-20.855-2.63-31.361c0.034-10.505,0.973-21.005,2.819-31.346c1.043-5.841,2.377-11.628,3.986-17.339
									C245.297,336.292,244.058,335.965,243.834,336.76z"/>
								<path style="fill:#5D3C13;" d="M247.776,347.381c0.125-0.807-1.114-1.142-1.24-0.325
									c-3.044,19.688-4.662,39.591-4.805,59.512c-0.04,5.571,0.037,11.142,0.224,16.709c0.028,0.824,1.309,0.826,1.282,0
									c-0.665-19.75,0.1-39.544,2.305-59.183C246.169,358.509,246.917,352.937,247.776,347.381z"/>
								<path style="fill:#5D3C13;" d="M250.576,345.895c-1.393,17.896-2.785,35.793-4.178,53.689
									c-0.393,5.045-0.785,10.09-1.178,15.135c-0.064,0.824,1.218,0.819,1.282,0c1.393-17.896,2.785-35.793,4.178-53.689
									c0.393-5.045,0.785-10.09,1.178-15.135C251.922,345.071,250.64,345.076,250.576,345.895z"/>
								<path style="fill:#5D3C13;" d="M257.063,346.585c-2.096,20.176-4.192,40.353-6.289,60.529
									c-0.585,5.628-1.169,11.256-1.754,16.884c-0.085,0.821,1.197,0.814,1.282,0c2.096-20.176,4.193-40.353,6.289-60.529
									c0.585-5.628,1.17-11.256,1.754-16.884C258.43,345.765,257.148,345.772,257.063,346.585z"/>
								<path style="fill:#5D3C13;" d="M264.312,336.651c0.149,10.344-0.249,20.694-1.202,30.995
									c-0.957,10.349-2.475,20.645-4.541,30.83c-1.166,5.75-2.51,11.463-4.021,17.133c-0.212,0.797,1.027,1.125,1.24,0.325
									c2.69-10.096,4.842-20.333,6.432-30.659c1.575-10.227,2.611-20.537,3.092-30.874c0.275-5.912,0.366-11.832,0.281-17.75
									C265.582,335.826,264.3,335.824,264.312,336.651z"/>
								<path style="fill:#5D3C13;" d="M269.967,348.505c-0.094,9.996-0.949,19.979-2.576,29.842
									c-1.62,9.817-3.988,19.511-7.079,28.969c-1.767,5.406-3.772,10.732-6.008,15.962c-0.32,0.749,0.79,1.393,1.115,0.633
									c3.954-9.247,7.208-18.786,9.702-28.53c2.506-9.788,4.252-19.77,5.228-29.827c0.55-5.667,0.847-11.356,0.901-17.049
									C271.257,347.679,269.975,347.679,269.967,348.505z"/>
								<path style="fill:#5D3C13;" d="M281.276,342.25c0.154,18.679-3.19,37.34-9.794,54.813c-1.867,4.94-4.003,9.774-6.38,14.489
									c-0.37,0.733,0.742,1.372,1.115,0.633c8.486-16.828,13.798-35.197,15.633-53.953c0.519-5.311,0.753-10.646,0.709-15.982
									C282.551,341.425,281.269,341.424,281.276,342.25z"/>
								<path style="fill:#5D3C13;" d="M286.594,348.178c-0.263,9.588-1.512,19.133-3.723,28.466
									c-2.21,9.328-5.361,18.434-9.413,27.121c-2.278,4.883-4.84,9.631-7.663,14.22c-0.432,0.702,0.682,1.336,1.115,0.633
									c5.058-8.222,9.257-16.957,12.542-26.033c3.297-9.11,5.663-18.558,7.038-28.149c0.773-5.389,1.237-10.817,1.386-16.259
									C287.898,347.352,286.616,347.354,286.594,348.178z"/>
								<path style="fill:#5D3C13;" d="M294.511,346.767c-3.243,19.217-8.215,38.137-14.855,56.46
									c-1.898,5.237-3.933,10.423-6.1,15.554c-0.317,0.75,0.794,1.394,1.115,0.633c7.643-18.099,13.658-36.874,17.91-56.056
									c1.196-5.394,2.251-10.819,3.17-16.266C295.887,346.285,294.648,345.951,294.511,346.767z"/>
								<path style="fill:#5D3C13;" d="M298.834,345.877c-0.83,18.747-5.325,37.313-13.156,54.367
									c-2.216,4.827-4.7,9.528-7.429,14.084c-0.424,0.707,0.69,1.342,1.115,0.633c4.854-8.104,8.913-16.672,12.126-25.555
									c3.241-8.962,5.612-18.24,7.06-27.66c0.808-5.257,1.331-10.555,1.566-15.868
									C300.152,345.051,298.87,345.054,298.834,345.877z"/>
								<path style="fill:#5D3C13;" d="M302.759,348.838c-0.561,18.137-4.806,36.137-12.402,52.617
									c-2.138,4.638-4.541,9.151-7.188,13.518c-0.427,0.705,0.687,1.339,1.115,0.633c9.489-15.66,15.783-33.231,18.406-51.353
									c0.74-5.109,1.191-10.255,1.351-15.415C304.066,348.012,302.784,348.014,302.759,348.838z"/>
								<path style="fill:#5D3C13;" d="M310.815,348.864c-1.965,18.475-7.172,36.599-15.297,53.308
									c-2.282,4.693-4.795,9.271-7.521,13.721c-0.431,0.703,0.684,1.337,1.115,0.633c9.792-15.986,16.782-33.675,20.561-52.038
									c1.063-5.165,1.866-10.38,2.423-15.624C312.184,348.044,310.901,348.051,310.815,348.864z"/>
								<path style="fill:#5D3C13;" d="M317.74,344.545c-0.019-0.825-1.301-0.827-1.282,0c0.422,18.074-3.669,36.19-11.769,52.351
									c-2.274,4.537-4.863,8.911-7.739,13.093c-0.467,0.679,0.65,1.31,1.115,0.633c10.321-15.007,16.83-32.527,18.955-50.609
									C317.623,354.881,317.861,349.711,317.74,344.545z"/>
								<path style="fill:#5D3C13;" d="M324.526,343.891c-0.014-0.825-1.296-0.827-1.282,0c0.294,17.026-3.494,34.071-10.946,49.382
									c-2.093,4.299-4.472,8.454-7.115,12.439c-0.456,0.687,0.66,1.319,1.115,0.633c9.51-14.343,15.516-30.916,17.514-48.003
									C324.374,353.547,324.61,348.718,324.526,343.891z"/>
								<path style="fill:#5D3C13;" d="M333.602,339.632c-0.877,15.726-5.211,31.217-12.584,45.133
									c-0.959,1.81-1.975,3.587-3.035,5.339c5.042-10.154,8.723-20.984,10.865-32.12c0.812-4.222,1.401-8.486,1.779-12.768
									c0.072-0.823-1.21-0.817-1.282,0c-1.34,15.208-5.521,30.154-12.257,43.855c-1.873,3.81-3.944,7.519-6.196,11.118
									c-0.437,0.699,0.677,1.332,1.115,0.633c0.791-1.264,1.538-2.554,2.283-3.845c0.277,0.145,0.658,0.129,0.886-0.198
									c9.105-13.046,15.328-28.077,18.14-43.735c0.796-4.433,1.318-8.914,1.568-13.411
									C334.93,338.807,333.648,338.81,333.602,339.632z"/>
								<path style="fill:#5D3C13;" d="M338.05,339.621c-0.67,15.397-4.874,30.591-12.171,44.163
									c-2.055,3.822-4.357,7.508-6.879,11.039c-0.478,0.67,0.639,1.3,1.115,0.633c9.051-12.67,15.173-27.396,17.814-42.74
									c0.745-4.33,1.212-8.707,1.404-13.096C339.367,338.795,338.085,338.798,338.05,339.621z"/>
								<path style="fill:#5D3C13;" d="M342.483,335.991c-0.797,14.985-4.849,29.763-11.782,43.071
									c-1.927,3.7-4.078,7.28-6.43,10.726c-0.464,0.681,0.652,1.312,1.115,0.633c8.55-12.527,14.367-26.897,16.959-41.841
									c0.722-4.164,1.194-8.369,1.419-12.589C343.809,335.165,342.527,335.169,342.483,335.991z"/>
								<path style="fill:#5D3C13;" d="M346.656,338.499c-2.185,12.192-5.983,24.083-11.313,35.266
									c-1.493,3.134-3.107,6.208-4.829,9.223c-0.409,0.715,0.705,1.352,1.115,0.633c6.173-10.807,10.907-22.432,14.019-34.484
									c0.88-3.408,1.626-6.849,2.247-10.313C348.041,338.018,346.803,337.684,346.656,338.499z"/>
								<path style="fill:#5D3C13;" d="M350.881,338.894c-2.431,11.24-6.216,22.174-11.293,32.494
									c-1.43,2.906-2.962,5.76-4.585,8.562c-0.413,0.713,0.7,1.349,1.115,0.633c5.796-10.001,10.376-20.703,13.593-31.806
									c0.915-3.157,1.716-6.346,2.41-9.558C352.295,338.416,351.056,338.085,350.881,338.894z"/>
							</g>
						</g>
					</g>
					<g>
						<polyline style="fill:none;stroke:#615672;stroke-width:3;stroke-miterlimit:10;" points="200.451,351.136 196.993,323.296 
							157.465,310.663 160.796,336.009 						"/>
						<g>
							<polygon style="fill:#844F38;" points="193.551,313.981 193.4,316.452 193.321,317.714 193.173,320.158 193.086,321.433 
								192.728,327.288 161.708,319.408 161.097,313.963 160.951,312.63 160.544,309.013 160.391,307.693 160.181,305.782 							
								"/>
							<path style="fill:#966146;" d="M193.4,316.452l-0.078,1.262c-12.956-3.507-19.802-5.178-32.777-8.701l-0.154-1.321
								c3.57,0.973,7.136,1.931,10.692,2.901C180.557,313.154,183.921,313.878,193.4,316.452z"/>
							<path style="fill:#966146;" d="M193.173,320.158l-0.087,1.275l-31.989-7.47l-0.145-1.333
								c2.474,0.607,4.961,1.215,7.435,1.822L193.173,320.158z"/>
						</g>
					</g>
				</g>
				<polygon style="fill:#FFAA96;" points="346.468,266.52 335.849,299.73 342.426,304.428 359.862,273.518 				"/>
				<polygon style="fill:#FFFFFF;" points="393.03,234.035 356.791,290.761 340.407,285.474 357.705,230.689 				"/>
				<path style="fill:#FFAA96;" d="M330.86,301.73l-10.577,15.018l-3.026-1.23c0,0-1.903,7.061,6.305,4.891
					c0.621,4.592,5.51,4.235,7.298,1.18c1.176,4.222,6.573-0.307,6.573-0.307s5.694,6.004,7.493-21.548L330.86,301.73z"/>
				<path style="fill:#FFAA96;" d="M337.718,297.664c-8.499-3.694-11.2,3.3-14.525,5.676c-3.324,2.376-3.127-3.731-5.811-2.302
					c-2.684,1.43-2.423,6.997,2.599,6.996c3.585,0,8.621-0.161,8.621-0.161L337.718,297.664z"/>
				<g>
					<g>
						<g>
							<path style="fill:#FFAA96;" d="M167.522,227.154c14.27-11.832,15.288,6.554,18.346,6.28c3.059-0.274,5.528,0.823,1.138,4.391
								s-7.5-3.393-8.553-7.322c-1.052-3.929-12.055,5.835-12.055,5.835L167.522,227.154z"/>
							<path style="fill:#FFAA96;" d="M166.399,245.608c-5.448,1.449-11.319-3.83-11.319-3.83
								c-4.063-2.966-7.207-9.782-2.936-16.722c4.271-6.94,24.31-1.829,24.31-1.829l-8.932,7.769l-4.635,7.816L166.399,245.608z"/>
						</g>
						<g>
							<path style="fill:none;stroke:#221610;stroke-width:0.75;stroke-miterlimit:10;" d="M219.757,330.896
								c0,0-45.375-119.695-52.008-139.74c-2.215-6.695-5.538-9.884-10.726-7.557c-4.793,2.15-8.077,8.038-4.488,10.302
								c4.988,3.147,9.524-7.875,12.874,0.16c3.35,8.035,54.347,149.773,54.347,149.773"/>
						</g>
						<path style="fill:#FFAA96;" d="M167.522,230.995c-3.931,21.817,10.391,11.486,16.261,11.486s7.513,7.291,3.522,6.111
							c-3.991-1.18-7.983-3.293-11.505,2.342c-3.522,5.635-18.549-3.954-16.435-19.939H167.522z"/>
					</g>
					<path style="fill:#FFAA96;" d="M155.656,229.83c7.219,14.235,6.993,24.495,0.609,28.071c-3.4,1.904-7.284-3.414-1.137-7.212
						c4.997-3.087-2.372-13.73-2.372-13.73L155.656,229.83z"/>
				</g>
				<polygon style="fill:#FFAA96;" points="160.261,231.915 141.24,230.428 144.682,219.289 161.814,221.425 				"/>
				<polygon style="fill:#FFFFFF;" points="144.682,219.289 135.793,248.052 58.644,225.602 82.4,205.478 				"/>
				<line style="fill:none;stroke:#F1E2CA;stroke-miterlimit:10;" x1="144.682" y1="219.289" x2="99.621" y2="209.297"/>
				<line style="fill:none;stroke:#F1E2CA;stroke-miterlimit:10;" x1="340.407" y1="285.474" x2="355.693" y2="237.064"/>
				<g>
					<g>
						<g>
							<path style="fill:#FFFFFF;" d="M219.006,137.607c-31.868-23.652-1.698-77.234,27.422-37.048
								c26.887-29.916,66.627-17.585,70.646,20.093c3.155,29.581-27.951,29.916-27.951,29.916L219.006,137.607z"/>
							<path style="fill:none;stroke:#F1E2CA;stroke-miterlimit:10;" d="M246.428,100.56c-4.981,6.482-6.755,16.639-6.755,16.639"/>
						</g>
						<path style="fill:#FF8070;" d="M231.058,189.391c-20.835-17.363-27.14-3.455-17.901,9.16c9.239,12.615,19.377,0,19.377,0
							L231.058,189.391z"/>
						<path style="fill:#221610;" d="M216.713,170.631c-9.485,1.942-9.796,9.098-3.729,12.054
							c-3.963,4.976,4.442,10.017,4.442,10.017l0.637-21.958L216.713,170.631z"/>
						<polygon style="fill:#FFAA96;" points="286.34,156.659 275.763,190.517 268.474,213.861 262.871,231.8 216.445,226.637 
							216.959,209.117 217.671,184.495 218.477,156.659 						"/>
						<path style="fill:#FFAA96;" d="M270.358,192.522c20.835-17.363,27.14-3.455,17.901,9.16c-9.239,12.615-19.377,0-19.377,0
							L270.358,192.522z"/>
						<path style="fill:#FF8070;" d="M272.227,193.132c13.763-11.469,17.927-2.282,11.824,6.051c-6.103,8.333-12.799,0-12.799,0
							L272.227,193.132z"/>
						<path style="fill:#FF8070;" d="M275.763,190.517l-7.289,23.344c-5.886-0.942-10.368-6.043-10.368-12.18
							c0-6.828,5.53-12.358,12.347-12.358C272.349,189.323,274.15,189.752,275.763,190.517z"/>
						<path style="fill:#FF8070;" d="M228.793,196.79c0,6.65-5.257,12.065-11.834,12.326l0.712-24.621
							C223.912,185.102,228.793,190.37,228.793,196.79z"/>
						<line style="fill:none;stroke:#230F0E;stroke-miterlimit:10;" x1="225.784" y1="227.676" x2="257.309" y2="230.995"/>
						<polyline style="fill:none;stroke:#230F0E;stroke-miterlimit:10;" points="239.673,156.654 242.126,193.134 232.918,198.455 
							232.918,201.678 246.428,201.678 246.428,190.094 						"/>
						<g>
							<path style="fill:none;stroke:#230F0E;stroke-miterlimit:10;" d="M252.668,181.245c-0.662,8.445,10.763,7.897,15.565,1.051"
								/>
							<path style="fill:none;stroke:#230F0E;stroke-miterlimit:10;" d="M222.534,181.245c0.331,8.776,9.769,7.897,14.736,1.051"/>
							<line style="fill:none;stroke:#230F0E;stroke-miterlimit:10;" x1="254.064" y1="185.845" x2="251.728" y2="187.629"/>
							<line style="fill:none;stroke:#230F0E;stroke-miterlimit:10;" x1="258.658" y1="187.501" x2="258.04" y2="190.32"/>
							<line style="fill:none;stroke:#230F0E;stroke-miterlimit:10;" x1="264.164" y1="185.945" x2="265.584" y2="187.629"/>
							<line style="fill:none;stroke:#230F0E;stroke-miterlimit:10;" x1="223.649" y1="185.273" x2="221.091" y2="186.737"/>
							<line style="fill:none;stroke:#230F0E;stroke-miterlimit:10;" x1="226.964" y1="187.507" x2="225.71" y2="190.32"/>
							<line style="fill:none;stroke:#230F0E;stroke-miterlimit:10;" x1="231.97" y1="186.737" x2="233.099" y2="188.913"/>
						</g>
						<path style="fill:none;stroke:#230F0E;stroke-miterlimit:10;" d="M230.886,205.626c2.74,6.14,14.149,7.568,22.48,0.578"/>
						<polygon style="fill:#221610;" points="274.496,172.254 274.496,194.573 282.217,176.121 						"/>
						<polygon style="fill:#FFFFFF;" points="216.713,170.631 282.217,176.121 293.469,134.483 219.006,137.607 						"/>
						<g>
							<defs>
								<polygon id="SVGID_00000152224524958382915290000002445589533892514461_" points="216.713,170.631 282.217,176.121 
									293.469,134.483 219.006,137.607 								"/>
							</defs>
							<clipPath id="SVGID_00000026850026397492833730000018151497094549566897_">
								<use xlink:href="#SVGID_00000152224524958382915290000002445589533892514461_"  style="overflow:visible;"/>
							</clipPath>
							<g style="clip-path:url(#SVGID_00000026850026397492833730000018151497094549566897_);">
								<line style="fill:none;stroke:#F1E2CA;stroke-miterlimit:10;" x1="222.534" y1="172.254" x2="228.023" y2="131.994"/>
								<line style="fill:none;stroke:#F1E2CA;stroke-miterlimit:10;" x1="234.47" y1="131.549" x2="229.902" y2="179.166"/>
								<line style="fill:none;stroke:#F1E2CA;stroke-miterlimit:10;" x1="245.794" y1="130.743" x2="241.596" y2="183.158"/>
								<line style="fill:none;stroke:#F1E2CA;stroke-miterlimit:10;" x1="249.808" y1="130.66" x2="247.363" y2="178.232"/>
								<line style="fill:none;stroke:#F1E2CA;stroke-miterlimit:10;" x1="255.81" y1="179.166" x2="261.813" y2="129.326"/>
								<line style="fill:none;stroke:#F1E2CA;stroke-miterlimit:10;" x1="272.261" y1="129.104" x2="266.481" y2="181.245"/>
								<line style="fill:none;stroke:#F1E2CA;stroke-miterlimit:10;" x1="271.371" y1="179.166" x2="281.007" y2="128.882"/>
							</g>
						</g>
						<path style="fill:#221610;" d="M274.496,194.573c8.766-1.871,5.521-6.748,5.521-6.748s13.643-2.09,2.2-11.704l-5.513,6.257
							L274.496,194.573z"/>
						<path style="fill:none;stroke:#F1E2CA;stroke-miterlimit:10;" d="M219.006,137.607l58.499-2.454
							c7.908-0.332,13.861,7.114,11.796,14.755l-0.179,0.661"/>
					</g>
				</g>
			</g>
			<path style="fill:#355463;" d="M197.697,426.004l2.99-4.423c1.806-2.672,4.81-4.285,8.035-4.316l79.611-0.755
				c3.598-0.034,6.926,1.904,8.672,5.049l3.388,6.104L197.697,426.004z"/>
			<g>
				<g>
					<path style="fill:#221610;" d="M359.182,60.26l4.608,71.458l4.872,1.596l0.288-18.563l0.84-54.491H359.182z M367.366,70.544
						c-2.316,0.768-3.576-5.568-0.816-6.78C370.294,62.144,369.67,69.776,367.366,70.544z"/>
					<path style="fill:#221610;" d="M359.182,60.26l5.304,55.055l4.464-0.564l3.336-0.42l0.084-2.1l1.548-53.903L359.182,60.26z
						 M367.366,70.544c-2.316,0.768-3.576-5.568-0.816-6.78C370.294,62.144,369.67,69.776,367.366,70.544z"/>
					<path style="fill:#221610;" d="M349.054,132.432c38.652-22.527,78.435,32.492,45.926,65.688
						C350.44,243.602,297.383,162.547,349.054,132.432z"/>
					<path style="fill:#8D6213;" d="M354.608,134.283c32.052-18.68,65.043,26.945,38.085,54.473
						C355.757,226.472,311.759,159.256,354.608,134.283z"/>
					<g>
						<path style="fill:none;stroke:#613C11;stroke-miterlimit:10;" d="M356.952,139.019c27.104-15.796,55.002,22.785,32.205,46.063
							C357.924,216.975,320.718,160.136,356.952,139.019z"/>
						<path style="fill:none;stroke:#613C11;stroke-miterlimit:10;" d="M370.198,139.159c27.929-1.461,34.298,40.503,6.73,49.652
							C339.159,201.345,332.862,141.112,370.198,139.159z"/>
						<path style="fill:none;stroke:#613C11;stroke-miterlimit:10;" d="M360.127,145.437c20.476-12.307,42.115,16.785,24.996,34.744
							C361.668,204.787,332.754,161.889,360.127,145.437z"/>
						<path style="fill:none;stroke:#613C11;stroke-miterlimit:10;" d="M373.113,147.28c19.444,1.873,19.514,31.519-0.474,34.994
							C345.254,187.035,347.12,144.776,373.113,147.28z"/>
					</g>
					<path style="fill:#613C11;" d="M381.219,169.786c-4.492,12.337-23.794,7.391-22.69-6.2
						C360.042,144.966,387.224,153.294,381.219,169.786z"/>
				</g>
				<g>
					<g>
						<path style="fill:#221610;" d="M445.052,131.692h-21.3c-0.637,0-1.173,0.479-1.244,1.112l-3.585,31.911
							c-0.081,0.723,0.468,1.362,1.195,1.391l28.068,1.1c0.758,0.03,1.368-0.616,1.295-1.371l-3.182-33.011
							C446.236,132.182,445.697,131.692,445.052,131.692z M426.56,134.948h1.128c0.728,0,1.302,0.618,1.248,1.344l-1.873,25.286
							c-0.05,0.68-0.636,1.195-1.318,1.157l-1.581-0.088c-0.708-0.039-1.242-0.658-1.177-1.365l2.326-25.199
							C425.373,135.441,425.913,134.948,426.56,134.948z M431.47,161.787l1.641-25.667c0.042-0.659,0.589-1.172,1.249-1.172h0.983
							c0.687,0,1.245,0.554,1.252,1.24l0.236,25.823c0.007,0.723-0.599,1.301-1.32,1.261l-2.86-0.156
							C431.956,163.079,431.426,162.481,431.47,161.787z M441.004,162.417l-0.474-26.195c-0.013-0.7,0.551-1.274,1.252-1.274l0,0
							c0.644,0,1.183,0.488,1.246,1.129l2.594,26.311c0.075,0.764-0.548,1.415-1.314,1.373l-2.12-0.116
							C441.533,163.609,441.016,163.074,441.004,162.417z M430.589,103.497h7.088v-1.882l-7.088-0.627V103.497z M435.737,57.372
							h-4.345c0,0-4.081,20.892,0.629,44.87l0.447,0.031l3.106,0.233l0.68,0.051C442.234,85.32,435.737,57.372,435.737,57.372z
							 M433.605,67.331c-1.452,0.152-1.645-3.705,0-4.294C435.94,62.194,435.057,67.189,433.605,67.331z M431.392,57.372
							l1.076,44.901l0.751,31.145l2.243,0.436l0.112-31.348l0.162-45.134H431.392z M433.605,63.037c2.335-0.843,1.452,4.152,0,4.294
							C432.154,67.483,431.961,63.626,433.605,63.037z"/>
					</g>
				</g>
				<g>
					<path style="fill:#221610;" d="M57.066,60.694c3.433-8.902,10.26-2.019,9.16,10.381C65.126,83.475,52.501,72.53,57.066,60.694z
						"/>
					<path style="fill:#221610;" d="M456.273,70.817c-4.661,8.325-10.442,0.543-7.595-11.575S462.47,59.749,456.273,70.817z"/>
					
						<line style="fill:none;stroke:#221610;stroke-width:2;stroke-miterlimit:10;" x1="61.209" y1="66.711" x2="454.228" y2="63.583"/>
				</g>
				<g>
					<path style="fill:none;stroke:#221610;stroke-width:2;stroke-miterlimit:10;" d="M108.737,88.379c0,0,4.696-9.384,2.054-19.401
						C108.079,58.701,97.508,67.704,108.737,88.379z"/>
					<path style="fill:#BA5528;" d="M115.807,86.42l25.985,18.627c5.036,3.61,5.81,10.8,1.656,15.398l-24.807,27.466
						c-3.752,4.154-10.121,4.586-14.399,0.978l-23.643-19.939c-4.412-3.721-4.943-10.325-1.183-14.703l22.465-26.155
						C105.388,84.011,111.433,83.285,115.807,86.42z"/>
					<path style="opacity:0.3;fill:none;stroke:#F3DDCA;stroke-miterlimit:10;" d="M115.143,91.294l21.963,15.744
						c4.257,3.051,4.911,9.128,1.4,13.015l-20.967,23.215c-3.171,3.511-8.554,3.877-12.171,0.827l-19.984-16.852
						c-3.729-3.145-4.178-8.727-1-12.427l18.988-22.106C106.337,89.258,111.446,88.644,115.143,91.294z"/>
					
						<line style="opacity:0.3;fill:none;stroke:#F3DDCA;stroke-miterlimit:10;" x1="83.115" y1="124.719" x2="115.143" y2="91.294"/>
					
						<line style="opacity:0.3;fill:none;stroke:#F3DDCA;stroke-miterlimit:10;" x1="96.622" y1="136.717" x2="126.572" y2="99.486"/>
					
						<line style="opacity:0.3;fill:none;stroke:#F3DDCA;stroke-miterlimit:10;" x1="107.161" y1="145.254" x2="139.542" y2="109.695"/>
					
						<line style="opacity:0.3;fill:none;stroke:#F3DDCA;stroke-miterlimit:10;" x1="86.953" y1="111.825" x2="121.625" y2="138.743"/>
					
						<line style="opacity:0.3;fill:none;stroke:#F3DDCA;stroke-miterlimit:10;" x1="99.359" y1="97.382" x2="133.631" y2="125.284"/>
				</g>
				<g>
					<path style="fill:#221610;" d="M138.329,64.064l3.633,86.162h3.89l1.751-86.277c0.054-2.354-1.664-4.376-3.996-4.703h0
						C140.727,58.843,138.19,61.159,138.329,64.064z M143.433,72.479c-2.233,0.774-2.498-5.769-0.553-7.007
						C144.262,64.599,145.665,71.706,143.433,72.479z"/>
					<path style="fill:#221610;" d="M143.85,137.488c-0.167,5.268,12.165,11.709,11.687,22.793
						c-0.479,11.084-8.278,17.216-12.659,17.216c-4.381,0-10.905-9.577-10.905-17.815S143.682,143.154,143.85,137.488z"/>
				</g>
			</g>
			<g>
				<path style="fill:#F1E2CA;" d="M131.465,359.843c-55.39-6.762-61.817,8.601-24.095,9.736
					C145.092,370.715,155.044,362.722,131.465,359.843z"/>
				<g>
					<polygon style="fill:#61752A;" points="103.734,367.179 126.953,367.179 142.262,330.407 89.235,328.833 					"/>
					<g>
						<defs>
							<polygon id="SVGID_00000136379860195979708560000003377662140908329133_" points="103.734,367.179 126.953,367.179 
								142.262,330.407 89.235,328.833 							"/>
						</defs>
						<clipPath id="SVGID_00000183221751425130752900000000826414792238999941_">
							<use xlink:href="#SVGID_00000136379860195979708560000003377662140908329133_"  style="overflow:visible;"/>
						</clipPath>
						
							<polygon style="clip-path:url(#SVGID_00000183221751425130752900000000826414792238999941_);fill:none;stroke:#B1AB10;stroke-miterlimit:10;" points="
							109.106,364.34 105.871,335.046 95.171,334.189 103.948,364.34 						"/>
						
							<polygon style="clip-path:url(#SVGID_00000183221751425130752900000000826414792238999941_);fill:none;stroke:#B1AB10;stroke-miterlimit:10;" points="
							118.498,364.34 126.773,335.742 112.357,335.742 112.557,364.325 						"/>
						
							<polygon style="clip-path:url(#SVGID_00000183221751425130752900000000826414792238999941_);fill:none;stroke:#B1AB10;stroke-miterlimit:10;" points="
							122.54,364.34 129.754,364.34 142.801,334.634 131.895,336.01 						"/>
						
							<path style="clip-path:url(#SVGID_00000183221751425130752900000000826414792238999941_);fill:none;stroke:#B1AB10;stroke-miterlimit:10;" d="
							M85.881,328.479c0,0,24.79,5.892,60.873,2.276"/>
					</g>
					<polygon style="fill:#61752A;" points="142.262,330.407 119.631,301.391 89.235,328.833 					"/>
					<polygon style="fill:#61752A;" points="128.709,321.676 132.493,301.506 103.492,299.217 105.116,319.073 					"/>
					<path style="fill:#61752A;" d="M97.847,301.05l39.412,2.466c0,0-8.251-14.422-21.51-17.158
						C102.489,283.622,97.847,301.05,97.847,301.05z"/>
					<line style="fill:none;stroke:#230F0E;stroke-miterlimit:10;" x1="103.672" y1="301.415" x2="132.175" y2="303.198"/>
					<line style="fill:none;stroke:#230F0E;stroke-miterlimit:10;" x1="129.973" y1="314.939" x2="104.812" y2="315.357"/>
					<line style="fill:none;stroke:#230F0E;stroke-miterlimit:10;" x1="107.856" y1="289.818" x2="111.415" y2="289.58"/>
					<line style="fill:none;stroke:#230F0E;stroke-miterlimit:10;" x1="110.062" y1="294.405" x2="113.393" y2="294.089"/>
					<line style="fill:none;stroke:#230F0E;stroke-miterlimit:10;" x1="115.556" y1="290.688" x2="119.404" y2="290.609"/>
					<line style="fill:none;stroke:#230F0E;stroke-miterlimit:10;" x1="120.749" y1="294.792" x2="124.071" y2="294.247"/>
				</g>
			</g>
			
				<radialGradient id="SVGID_00000183944832625635675830000003099101236850084758_" cx="204.1325" cy="256.3997" r="114.5809" gradientTransform="matrix(1 0 0 0.611 0 99.7305)" gradientUnits="userSpaceOnUse">
				<stop  offset="0" style="stop-color:#FFFFFF"/>
				<stop  offset="1" style="stop-color:#FFFFFF;stop-opacity:0"/>
			</radialGradient>
			<path style="fill:url(#SVGID_00000183944832625635675830000003099101236850084758_);" d="M190.917,339.163v-36.891
				c0-6.516-5.282-11.798-11.798-11.798h-15.162c-4.768,0-8.634-3.865-8.634-8.634v0c0-4.768-3.866-8.634-8.634-8.634H69.434V237.25
				h148.422c5.713,0,10.345,4.632,10.345,10.345l0,0c0,5.713-4.632,10.345-10.345,10.345H179.65c-4.768,0-8.634,3.865-8.634,8.634
				v4.365c0,4.768,3.866,8.634,8.634,8.634h61.045c6.503,0,11.774,5.271,11.774,11.774l0,0c0,6.503-5.271,11.774-11.774,11.774
				h-26.55c-6.516,0-11.798,5.282-11.798,11.798V335.6"/>
		</g>
		<g>
			<polygon style="opacity:0.85;fill:#221610;" points="457.873,387.971 45.545,383.756 42.127,411.678 457.873,415.851 			"/>
			<g>
				<path style="fill:#FFFFFF;" d="M444.676,402.604H60.372c-1.328,0-2.404-1.076-2.404-2.404v-0.733
					c0-1.328,1.076-2.405,2.404-2.405h384.303c1.328,0,2.404,1.077,2.404,2.405v0.733
					C447.08,401.528,446.004,402.604,444.676,402.604z"/>
				<path style="fill:#C70037;" d="M212.525,399.838c0,0.968-0.15,1.89-0.438,2.766H60.734c-1.531,0-2.771-1.241-2.771-2.771v-0.001
					c0-1.53,1.241-2.771,2.771-2.771h151.352C212.375,397.936,212.525,398.87,212.525,399.838z"/>
				<g>
					<path style="fill:#FFFFFF;" d="M215.491,399.838c0,0.968-0.15,1.89-0.438,2.766c-1.164,3.607-4.552,6.212-8.54,6.212
						c-3.999,0-7.388-2.605-8.54-6.212c-0.288-0.876-0.438-1.798-0.438-2.766c0-0.968,0.15-1.902,0.438-2.778
						c1.164-3.607,4.541-6.212,8.54-6.212c3.988,0,7.376,2.605,8.54,6.212C215.341,397.936,215.491,398.87,215.491,399.838z"/>
					<path style="fill:#C70037;" d="M210.691,399.833c0,2.308-1.871,4.18-4.18,4.18s-4.18-1.871-4.18-4.18s1.871-4.18,4.18-4.18
						S210.691,397.525,210.691,399.833z"/>
				</g>
			</g>
		</g>
	</g>
</g>
</svg>
